<?xml version="1.0" encoding="utf-8"?>
<!-- Generator: Adobe Illustrator 25.2.1, SVG Export Plug-In . SVG Version: 6.00 Build 0)  -->
<svg version="1.1" id="Layer_1" xmlns="http://www.w3.org/2000/svg" xmlns:xlink="http://www.w3.org/1999/xlink" x="0px" y="0px"
	 viewBox="0 0 250 100" style="enable-background:new 0 0 250 100;" xml:space="preserve">
<style type="text/css">
	.st0{fill:#CFE6FF;}
	.st1{fill:#9CACFF;}
	.st2{fill:#E8F3FF;}
	.st3{opacity:0.5;}
	.st4{fill:#00E0FF;}
</style>
<circle class="st0" cx="77.7" cy="84" r="12.9"/>
<path class="st1" d="M240.9,23.4c8.3-3.9,8.9-9.9,8.9-9.9c0.6-3.5-1.5-5.7-4.2-5.7c-2.3,0-4.3,1.6-4.8,3.7c-0.5-2.1-2.4-3.7-4.8-3.7
	c-2.7,0-4.8,2.2-4.2,5.7C232,13.5,232.6,19.5,240.9,23.4z"/>
<path class="st1" d="M58.9,50.7c0,15.1-11.9,27.3-26.5,27.3c-14.6,0-26.5-12.2-26.5-27.3s11.9-27.3,26.5-27.3S58.9,35.7,58.9,50.7z"
	/>
<path class="st0" d="M25.3,24.8c0,7.2-5.6,13-12.6,13S0,32,0,24.8s5.6-13,12.6-13S25.3,17.6,25.3,24.8z"/>
<circle class="st2" cx="196.9" cy="51.4" r="39.6"/>
<g class="st3">
	<path class="st4" d="M136.8,6.3c-1.5,1.5-1.5,3.8,0,5.3l0,0l0,0l0,0l0,0c0.3,0.3,0.8,0.3,1.1,0c0.3-0.3,0.3-0.8,0-1.1l0,0
		c-0.9-0.9-0.9-2.3,0-3.1s2.3-0.9,3.1,0l0,0c0.3,0.3,0.8,0.3,1.1,0c0.3-0.3,0.3-0.8,0-1.1l0,0l0,0l0,0l0,0
		C140.7,4.8,138.3,4.8,136.8,6.3z"/>
</g>
<g class="st3">
	<path class="st4" d="M142.1,11.6c1.5-1.5,1.5-3.8,0-5.3l0,0l0,0l0,0l0,0c-0.3-0.3-0.8-0.3-1.1,0s-0.3,0.8,0,1.1l0,0
		c0.9,0.9,0.9,2.3,0,3.1c-0.9,0.9-2.3,0.9-3.1,0l0,0c-0.3-0.3-0.8-0.3-1.1,0c-0.3,0.3-0.3,0.8,0,1.1l0,0l0,0l0,0l0,0
		C138.3,13,140.6,13,142.1,11.6z"/>
</g>
<g>
	<path class="st1" d="M95.4,37.2c-0.1,3.5-0.6,6.9-1.5,10.3l17.5,20.5l-8.4,7.5L89.2,59.5c-3.1,5.7-7.2,11.3-12.4,16.7l-8.1-7.5
		c10-10.7,15-20.8,15.5-31.5h-13V27.1h13.1v-9.2h11.2v9.2h13.4v10.2C108.9,37.2,95.4,37.2,95.4,37.2z M134.9,41.2v10.1h-8.9V85
		h-11.2V17.8h11.2v23.3C125.9,41.2,134.9,41.2,134.9,41.2z"/>
	<path class="st1" d="M163.2,37.2c-0.1,3.5-0.6,6.9-1.5,10.3l17.5,20.5l-8.4,7.5l-13.7-16.1c-3.1,5.7-7.2,11.3-12.4,16.7l-8.1-7.5
		c10-10.7,15-20.8,15.5-31.5h-13V27h13.1v-9.2h11.2V27h13.4v10.2L163.2,37.2L163.2,37.2z M202.7,41.2v10.1h-8.9V85h-11.2V17.8h11.2
		v23.3C193.8,41.2,202.7,41.2,202.7,41.2z"/>
</g>
</svg>
